<svg id="Layer_1" data-name="Layer 1" xmlns="http://www.w3.org/2000/svg" viewBox="0 0 512 512">
  <path d="M0,72.1C0,31.7,25.5-1,56.9-1H455.1C486.5-1,512,31.7,512,72.1V437.8c0,40.4-25.5,73.2-56.9,73.2H56.9C25.5,511,0,478.2,0,437.8Z" transform="translate(0 1)" fill="#1f2937"/>
  <path d="M111.2,153.1h57.6v66.7q0,49.9,12.6,68.1c8.5,12,23.6,18.2,45.6,18.4V153.1h57.3V306.3c14.9-.2,26.5-2.8,34.7-7.8s14.3-13.5,18-25.3,5.7-29.7,5.7-53.4V153.1H400v76.2c0,29.5-3.2,52.3-9.7,68.7s-17.9,29.7-34.4,40.1-40.3,16.1-71.6,17v83.1H227V355.1q-44.9-1.4-70-16.2t-35.5-39.6c-6.8-16.4-10.3-39.8-10.3-70Z" transform="translate(0 1)" fill="#f3f3f3"/>
</svg>
